<svg xmlns="http://www.w3.org/2000/svg" viewBox="0 0 883.44 234.2"><defs><style>.cls-1{opacity:0.5;}.cls-2{font-size:200px;font-family:PierSans-Medium, Pier Sans;font-weight:500;}.cls-2,.cls-6{fill:#fff;}.cls-3{letter-spacing:-0.02em;}.cls-4{letter-spacing:-0.13em;}.cls-5{letter-spacing:-0.01em;}</style></defs><title>locatix-logo</title><g id="Layer_3" data-name="Layer 3" class="cls-1"><text class="cls-2" transform="translate(3.61 175)">L</text><text class="cls-2" transform="translate(312.24 175)"><tspan class="cls-3">C</tspan><tspan class="cls-4" x="143.2" y="0">A</tspan><tspan class="cls-5" x="260.6" y="0">T</tspan><tspan x="382.8" y="0">IX</tspan></text></g><g id="Layer_1" data-name="Layer 1"><text class="cls-2" transform="translate(0 175)">L</text><text class="cls-2" transform="translate(308.63 175)"><tspan class="cls-3">C</tspan><tspan class="cls-4" x="143.2" y="0">A</tspan><tspan class="cls-5" x="260.6" y="0">T</tspan><tspan x="382.8" y="0">IX</tspan></text></g><g id="Layer_2" data-name="Layer 2"><rect class="cls-6" x="362.48" y="564.84" width="17.64" height="9.33" transform="translate(-405.18 43.66) rotate(-48.19)"/><rect class="cls-6" x="364.97" y="571.16" width="22.14" height="5.17" transform="translate(-406.76 48.59) rotate(-48.19)"/><path class="cls-6" d="M456,626.9A9.29,9.29,0,0,1,457,640l-6.1,6.81a9.28,9.28,0,0,1-13.11.55L370,586.74c-3.87-3.47-.29-5.75,3.08-9.52l6.1-6.81c3.36-3.77,5.24-7.59,9.11-4.12Z" transform="translate(-104.47 -422.9)"/><path class="cls-6" d="M239.49,458.83a85.88,85.88,0,1,0,121.26-6.75A85.88,85.88,0,0,0,239.49,458.83Zm117,104.65a71.09,71.09,0,1,1-5.59-100.38A71.08,71.08,0,0,1,356.48,563.48Z" transform="translate(-104.47 -422.9)"/></g></svg>